{"title":"White Collar S05E13 x264 AAC E-Subs [GWC].mp4","uid":9548814,"size":125128198,"categoryP":"video","categoryS":"tv_shows","magnet":"?xt=urn:btih:4e28f6c616c9992183dea57f7ed727f751a0aea3&amp;dn=White+Collar+S05E13+x264+AAC+E-Subs+%5BGWC%5D.mp4&amp;tr=udp%3A%2F%2Ftracker.openbittorrent.com%3A80&amp;tr=udp%3A%2F%2Fopen.demonii.com%3A1337&amp;tr=udp%3A%2F%2Ftracker.coppersurfer.tk%3A6969&amp;tr=udp%3A%2F%2Fexodus.desync.com%3A6969","seeders":2,"leechers":0,"uploader":"canc232","files":1,"time":1391190141,"description":"White Collar S05E13 x264 AAC E-Subs [GWC]\n\nSCREENS : &lt;a href=&quot;\nhttp://imageshack.com/a/img824/44/z0vj.jpg&quot; rel=&quot;nofollow&quot; target=&quot;_NEW&quot;&gt;\nhttp://imageshack.com/a/img824/44/z0vj.jpg&lt;/a&gt; &lt;a href=&quot;\nhttp://imageshack.com/a/img202/4409/joay.jpg&quot; rel=&quot;nofollow&quot; target=&quot;_NEW&quot;&gt;\nhttp://imageshack.com/a/img202/4409/joay.jpg&lt;/a&gt; &lt;a href=&quot;\nhttp://imageshack.com/a/img850/4871/ov0a.jpg&quot; rel=&quot;nofollow&quot; target=&quot;_NEW&quot;&gt;\nhttp://imageshack.com/a/img850/4871/ov0a.jpg&lt;/a&gt;\n\n\nMEDIA INFO :\nGeneral \nFormat : MPEG-4 \nFormat profile : Base Media \nFile size : 119 MiB \nDuration : 42mn 16s \nOverall bit rate mode : Variable \nOverall bit rate : 395 Kbps \n\nVideo \nFormat : AVC \nFormat profile : &lt;a class=&quot;__cf_email__&quot; href=&quot;/cdn-cgi/l/email-protection&quot; data-cfemail=&quot;6129080609212d524f51&quot;&gt;[email&amp;#160;protected]&lt;/a&gt;&lt;script cf-hash='f9e31' type=&quot;text/javascript&quot;&gt;\n/* &lt;![CDATA[ */!function(){try{var t=&quot;currentScript&quot;in document?document.currentScript:function(){for(var t=document.getElementsByTagName(&quot;script&quot;),e=t.length;e--;)if(t[e].getAttribute(&quot;cf-hash&quot;))return t[e]}();if(t&amp;&amp;t.previousSibling){var e,r,n,i,c=t.previousSibling,a=c.getAttribute(&quot;data-cfemail&quot;);if(a){for(e=&quot;&quot;,r=parseInt(a.substr(0,2),16),n=2;a.length-n;n+=2)i=parseInt(a.substr(n,2),16)^r,e+=String.fromCharCode(i);e=document.createTextNode(e),c.parentNode.replaceChild(e,c)}}}catch(u){}}();/* ]]&gt; */&lt;/script&gt; \nFormat settings, CABAC : Yes \nFormat settings, ReFrames : 4 frames \nDuration : 42mn 16s \nBit rate : 331 Kbps \nMaximum bit rate : 3 631 Kbps \nWidth : 720 pixels \nHeight : 404 pixels \nDisplay aspect ratio : 16:9 \nFrame rate : 23.976 fps \nStream size : 100 MiB (84%) \nTitle : White Collar S05E13 x264 AAC E-Subs [GWC] \nWriting library : x264 core\n\nAudio \nFormat : AAC \nFormat profile : HE-AAC / LC \nDuration : 42mn 16s \nBit rate mode : Variable \nChannel(s) : 2 channels \nSampling rate : 48.0 KHz / 24.0 KHz \nStream size : 18.1 MiB\nLanguage : English \n\nText \nFormat : Timed Text \nDuration : 41mn 57s \nBit rate mode : Variable \nStream size : 28.5 KiB (0%) \nTitle : English Subtitle by honeybunny \nLanguage : English ","torrent":{"xt":"urn:btih:4e28f6c616c9992183dea57f7ed727f751a0aea3","amp;dn":"White+Collar+S05E13+x264+AAC+E-Subs+%5BGWC%5D.mp4","amp;tr":["udp%3A%2F%2Ftracker.openbittorrent.com%3A80","udp%3A%2F%2Fopen.demonii.com%3A1337","udp%3A%2F%2Ftracker.coppersurfer.tk%3A6969","udp%3A%2F%2Fexodus.desync.com%3A6969"],"infoHash":"4e28f6c616c9992183dea57f7ed727f751a0aea3","infoHashBuffer":{"type":"Buffer","data":[78,40,246,198,22,201,153,33,131,222,165,127,126,215,39,247,81,160,174,163]},"announce":[],"urlList":[]}}